<svg width="300" height="300" viewBox="0 0 300 300" fill="none" xmlns="http://www.w3.org/2000/svg">
  <!-- Background -->
  <circle cx="150" cy="150" r="150" fill="#1e293b"/>
  
  <!-- Face -->
  <circle cx="150" cy="130" r="60" fill="#f1f5f9"/>
  
  <!-- Hair -->
  <path d="M90 120 Q150 70 210 120 Q210 90 150 85 Q90 90 90 120 Z" fill="#334155"/>
  
  <!-- Eyes -->
  <circle cx="130" cy="120" r="4" fill="#1e293b"/>
  <circle cx="170" cy="120" r="4" fill="#1e293b"/>
  <circle cx="131" cy="119" r="1" fill="#f8fafc"/>
  <circle cx="171" cy="119" r="1" fill="#f8fafc"/>
  
  <!-- Nose -->
  <path d="M150 125 L148 135 L152 135 Z" fill="#e2e8f0"/>
  
  <!-- Mouth -->
  <path d="M140 145 Q150 155 160 145" stroke="#1e293b" stroke-width="2" fill="none" stroke-linecap="round"/>
  
  <!-- Body/Shirt -->
  <path d="M90 190 Q150 180 210 190 L210 300 L90 300 Z" fill="#10b981"/>
  
  <!-- Collar -->
  <path d="M130 190 L150 200 L170 190 L170 210 L150 220 L130 210 Z" fill="#f8fafc"/>
  
  <!-- Professional touch - glasses frame -->
  <circle cx="130" cy="120" r="12" fill="none" stroke="#475569" stroke-width="1"/>
  <circle cx="170" cy="120" r="12" fill="none" stroke="#475569" stroke-width="1"/>
  <path d="M142 120 L158 120" stroke="#475569" stroke-width="1"/>
</svg>
