<svg width="400" height="300" viewBox="0 0 400 300" fill="none" xmlns="http://www.w3.org/2000/svg">
  <!-- Background -->
  <rect width="400" height="300" fill="#0f172a"/>
  
  <!-- Header -->
  <rect x="0" y="0" width="400" height="50" fill="#1e293b"/>
  <text x="20" y="30" fill="#f1f5f9" font-family="system-ui" font-size="16" font-weight="bold">Task Management</text>
  <rect x="320" y="15" width="60" height="20" rx="10" fill="#10b981"/>
  <text x="335" y="27" fill="#0f172a" font-family="system-ui" font-size="10" font-weight="bold">+ New Task</text>
  
  <!-- Kanban Columns -->
  <!-- Todo Column -->
  <rect x="20" y="70" width="110" height="210" rx="8" fill="#1e293b"/>
  <text x="30" y="90" fill="#64748b" font-family="system-ui" font-size="12" font-weight="bold">TO DO (3)</text>
  
  <rect x="30" y="100" width="90" height="50" rx="6" fill="#0f172a"/>
  <text x="35" y="115" fill="#f1f5f9" font-family="system-ui" font-size="10">Design homepage</text>
  <circle cx="110" cy="135" r="8" fill="#ef4444"/>
  <text x="106" y="139" fill="#fff" font-family="system-ui" font-size="8">H</text>
  
  <rect x="30" y="160" width="90" height="50" rx="6" fill="#0f172a"/>
  <text x="35" y="175" fill="#f1f5f9" font-family="system-ui" font-size="10">API integration</text>
  <circle cx="110" cy="195" r="8" fill="#f59e0b"/>
  <text x="106" y="199" fill="#fff" font-family="system-ui" font-size="8">M</text>
  
  <!-- In Progress Column -->
  <rect x="145" y="70" width="110" height="210" rx="8" fill="#1e293b"/>
  <text x="155" y="90" fill="#64748b" font-family="system-ui" font-size="12" font-weight="bold">IN PROGRESS (2)</text>
  
  <rect x="155" y="100" width="90" height="60" rx="6" fill="#0f172a"/>
  <text x="160" y="115" fill="#f1f5f9" font-family="system-ui" font-size="10">User authentication</text>
  <rect x="160" y="125" width="60" height="4" rx="2" fill="#3b82f6"/>
  <rect x="160" y="125" width="40" height="4" rx="2" fill="#10b981"/>
  <circle cx="235" cy="145" r="8" fill="#3b82f6"/>
  <text x="231" y="149" fill="#fff" font-family="system-ui" font-size="8">D</text>
  
  <!-- Done Column -->
  <rect x="270" y="70" width="110" height="210" rx="8" fill="#1e293b"/>
  <text x="280" y="90" fill="#64748b" font-family="system-ui" font-size="12" font-weight="bold">DONE (4)</text>
  
  <rect x="280" y="100" width="90" height="40" rx="6" fill="#0f172a"/>
  <text x="285" y="115" fill="#f1f5f9" font-family="system-ui" font-size="10">Setup project</text>
  <circle cx="360" cy="125" r="8" fill="#10b981"/>
  <text x="357" y="129" fill="#fff" font-family="system-ui" font-size="8">✓</text>
  
  <rect x="280" y="150" width="90" height="40" rx="6" fill="#0f172a"/>
  <text x="285" y="165" fill="#f1f5f9" font-family="system-ui" font-size="10">Database design</text>
  <circle cx="360" cy="175" r="8" fill="#10b981"/>
  <text x="357" y="179" fill="#fff" font-family="system-ui" font-size="8">✓</text>
</svg>
